<svg xmlns="http://www.w3.org/2000/svg" version="1.1" xmlns:xlink="http://www.w3.org/1999/xlink" xmlns:svgjs="http://svgjs.dev/svgjs" width="1440" height="300" preserveAspectRatio="none" viewBox="0 0 1440 300"><g mask="url(&quot;#SvgjsMask1011&quot;)" fill="none"><rect width="1440" height="300" x="0" y="0" fill="rgba(30, 43, 60, 1)"></rect><path d="M0,420.525C77.462,420.538,138.586,357.744,197.854,307.867C250.866,263.255,292.561,209.712,323.92,147.929C356.412,83.915,383.955,16.839,381.994,-54.922C379.886,-132.042,366.327,-215.517,312.476,-270.762C259.337,-325.277,174.295,-323.436,100.823,-343.373C29.07,-362.843,-40.953,-402.875,-113.438,-386.334C-187.414,-369.452,-247.129,-314.289,-292.648,-253.581C-336.223,-195.466,-353.398,-124.194,-363.883,-52.318C-374.386,19.684,-383.636,95.209,-353.164,161.285C-322.739,227.26,-256.379,264.808,-197.811,307.8C-135.367,353.637,-77.461,420.512,0,420.525" fill="#182230"></path><path d="M1440 771.76C1527.009 773.204 1577.269 673.344 1644.167 617.69 1701.987 569.588 1764.334 529.7429999999999 1806.099 467.192 1853.664 395.955 1908.55 319.069 1900.497 233.791 1892.365 147.674 1831.612 73.131 1763.815 19.411999999999978 1702.034-29.54000000000002 1619.487-31.971000000000004 1542.687-49.721000000000004 1470.768-66.34300000000002 1396.921-107.83499999999998 1328.039-81.30399999999997 1259.796-55.019000000000005 1244.884 34.56099999999998 1192.195 85.275 1131.856 143.352 1031.742 159.823 997.923 236.439 962.223 317.315 962.905 421.724 1010.912 495.95799999999997 1058.296 569.229 1166.738 563.8050000000001 1240.141 610.986 1313.551 658.171 1352.745 770.312 1440 771.76" fill="#243448"></path></g><defs><mask id="SvgjsMask1011"><rect width="1440" height="300" fill="#ffffff"></rect></mask></defs></svg>